PathFileType	4	(X/Y/Z)	Walk6.trc
DataRate	CameraRate	NumFrames	NumMarkers	Units	OrigDataRate	OrigDataStartFrame	OrigNumFrames
200.000000	200.000000	4	58	mm	200.000000	676	716
Frame#	Times		RCAR		LMT1		RFHD		LTB2		LFHD		LTB3		RUA1		LMT5		LTB4		RElbow		RASI		RFA1		LACR1		LToe		RBHD		LUA1		LASI		RACR1		LTH1		LTH3		RTH3		LCAR		RWRU		LTH2		RLFC		C7		RBack		STRN		LElbow		RTH4		RTH2		CLAV		LTH4		RMT1		LLFC		RWRR		LWRR		RTB4		RTB3		LFA1		LPSI		RPSI		RTB2		RToe		LTB1		RTB1		LWRU		RTH1		LElbowM		LMMAL		LBHD		T10		RLMAL		RMMAL		RCAL		RMT5		LCAL		RElbowM
			X1	Y1	Z1	X2	Y2	Z2	X3	Y3	Z3	X4	Y4	Z4	X5	Y5	Z5	X6	Y6	Z6	X7	Y7	Z7	X8	Y8	Z8	X9	Y9	Z9	X10	Y10	Z10	X11	Y11	Z11	X12	Y12	Z12	X13	Y13	Z13	X14	Y14	Z14	X15	Y15	Z15	X16	Y16	Z16	X17	Y17	Z17	X18	Y18	Z18	X19	Y19	Z19	X20	Y20	Z20	X21	Y21	Z21	X22	Y22	Z22	X23	Y23	Z23	X24	Y24	Z24	X25	Y25	Z25	X26	Y26	Z26	X27	Y27	Z27	X28	Y28	Z28	X29	Y29	Z29	X30	Y30	Z30	X31	Y31	Z31	X32	Y32	Z32	X33	Y33	Z33	X34	Y34	Z34	X35	Y35	Z35	X36	Y36	Z36	X37	Y37	Z37	X38	Y38	Z38	X39	Y39	Z39	X40	Y40	Z40	X41	Y41	Z41	X42	Y42	Z42	X43	Y43	Z43	X44	Y44	Z44	X45	Y45	Z45	X46	Y46	Z46	X47	Y47	Z47	X48	Y48	Z48	X49	Y49	Z49	X50	Y50	Z50	X51	Y51	Z51	X52	Y52	Z52	X53	Y53	Z53	X54	Y54	Z54	X55	Y55	Z55	X56	Y56	Z56	X57	Y57	Z57	X58	Y58	Z58

676	3.38	1037.9	781.05	276.22	1124.2	32.449	3.8485	1145.3	1615.4	-7.0408	1046.7	254.81	-96.882	1114.9	1614.7	-96.67	1056.2	169.36	-38.111	1018.4	1204.7	229.92	1092.5	25.08	-74.844	1070.3	254.3	-39.938	965.68	1086.9	257.68	1141.6	988.4	137.9	964.16	940.46	277.09	1029	1383.5	-181.27	1191.8	28.09	-23.905	1013.4	1549.1	57.45	1030.3	1200	-271.94	1157.8	971.69	-149.96	1037.7	1386.3	131.74	1057.4	760.49	-224.75	1050.7	601.66	-161.76	1150.1	585.82	176.45	1136.4	797.64	-302.71	979.94	832.53	283.68	1108.6	687.83	-175.48	1176.6	508.14	156.98	957.87	1424.4	-16.598	911.52	1329.6	89.083	1161.6	1251.2	-18.275	1005.2	1073.1	-298.24	1120.5	664.45	191.68	1175.7	687.23	188.56	1098.7	1353.4	-27.907	1053.4	682.77	-188.8	1055.9	54.611	78.323	1046.2	480.97	-124.77	1026.8	836.02	230.05	1113.2	840.19	-261.06	1116	277.57	98.527	1062.1	211.25	100.48	1029.9	937.18	-311.35	904.93	973.95	-59.422	903.18	974.31	29.982	1090.5	298.52	152.05	1105.3	37.794	116.99	1084.3	339.53	-43.567	1171	345.83	102.6	1068	826.1	-317.54	1092.8	745.73	210.12	969.84	1043.9	-227.41	1022.4	67.226	23.048	972.27	1541	-78.422	892	1156.5	-20.779	963.17	138.23	120.78	960.04	139.91	43.289	895.76	132.41	75.253	1017.3	64.193	144.55	945.39	31.774	-22.656	947.69	1058.4	164.88
677	3.385	1039.8	780.6	275.76	1124.3	32.382	3.9004	1151.3	1615.2	-6.9657	1047.4	254.71	-96.917	1120.8	1614.6	-96.591	1057.3	169.14	-38.261	1022.8	1204.4	229.56	1092.5	25.059	-74.857	1070.8	254.15	-39.919	969.39	1086.9	257.07	1147.3	988.26	137.18	966.93	940.4	276.38	1035.1	1383.5	-181.4	1191.9	27.957	-23.896	1019.4	1548.9	57.449	1037.2	1200.5	-272.59	1162.4	971.37	-150.96	1043.2	1386	131.57	1061	760.29	-224.96	1052.9	601.62	-161.7	1158.2	586.73	175.61	1148.5	800.18	-303.17	982.02	832.32	282.88	1111.5	687.15	-175.68	1185.3	509.39	155.85	963.67	1424.3	-16.888	916.98	1329.6	88.523	1167.1	1250.8	-18.139	1013.1	1073.5	-299.44	1127.7	664.98	191.27	1182.7	688.34	188.47	1104.4	1353.2	-28.033	1056.4	682.63	-188.82	1076.3	53.043	77.326	1047.8	480.89	-124.91	1029.4	835.64	229.57	1124.4	842.17	-261.51	1129.9	276.95	97.285	1077.7	209.05	99.222	1039.7	937.81	-312.34	909.93	973.89	-59.057	908.43	974.24	30.379	1103.7	297.02	150.9	1126.5	38.292	116	1085.1	339.32	-43.565	1182.7	346.64	101.26	1079.5	827.18	-318.05	1099.1	745.85	210.02	977.45	1043.9	-228.97	1022.5	67.335	23.323	978.17	1541	-78.436	897.42	1156.6	-21.354	980.89	133.4	119.82	965.71	138.56	42.976	913.49	125.23	74.448	1037.7	61.489	143.55	945.36	31.88	-22.63	951.46	1058.4	164.17
678	3.39	1041.7	780.14	275.36	1124.4	32.302	3.9552	1157.2	1614.9	-6.8707	1048.2	254.6	-96.941	1126.8	1614.5	-96.495	1058.3	168.91	-38.415	1027.2	1204	229.2	1092.5	25.042	-74.876	1071.4	253.98	-39.9	973.1	1086.8	256.46	1153	988.04	136.48	969.69	940.3	275.66	1041.2	1383.5	-181.53	1192	27.819	-23.882	1025.3	1548.6	57.451	1044	1200.8	-273.24	1167.1	971.01	-151.95	1048.7	1385.6	131.41	1064.7	760.07	-225.18	1055	601.56	-161.64	1166.2	587.59	174.73	1160.5	802.71	-303.6	984.12	832.08	282.05	1114.6	686.46	-175.88	1193.9	510.54	154.71	969.47	1424.3	-17.177	922.42	1329.6	87.96	1172.5	1250.4	-18.041	1021.1	1073.8	-300.64	1134.9	665.46	190.84	1189.7	689.36	188.31	1110.1	1352.9	-28.169	1059.4	682.48	-188.85	1096.8	51.563	76.274	1049.4	480.81	-125.05	1032	835.23	229.1	1135.5	844.16	-261.95	1143.7	276.31	96.014	1093.4	206.83	97.932	1049.6	938.42	-313.31	914.93	973.76	-58.641	913.69	974.11	30.829	1117	295.48	149.74	1147.8	38.901	114.92	1086	339.08	-43.567	1194.3	347.43	99.886	1091	828.27	-318.52	1105.3	745.94	209.92	985.07	1043.7	-230.53	1022.7	67.474	23.676	984.08	1540.9	-78.45	902.85	1156.6	-21.898	998.86	128.53	118.83	969.61	137.62	42.764	931.56	118.02	73.628	1058.2	58.803	142.47	945.33	32.006	-22.609	955.26	1058.4	163.46
679	3.395	1043.7	779.68	275	1124.5	32.205	4.0114	1163.1	1614.5	-6.7569	1049.1	254.49	-96.957	1132.8	1614.3	-96.383	1059.2	168.68	-38.565	1031.6	1203.6	228.84	1092.5	25.028	-74.899	1072	253.79	-39.882	976.82	1086.6	255.84	1158.8	987.76	135.79	972.47	940.18	274.94	1047.2	1383.5	-181.67	1192	27.676	-23.862	1031.2	1548.3	57.453	1050.9	1201.1	-273.88	1171.7	970.58	-152.94	1054.2	1385.2	131.25	1068.3	759.84	-225.4	1057.3	601.51	-161.59	1174	588.38	173.82	1172.5	805.22	-303.99	986.25	831.8	281.21	1117.7	685.77	-176.08	1202.2	511.58	153.55	975.26	1424.1	-17.463	927.86	1329.5	87.398	1178	1249.9	-17.984	1029	1074.1	-301.82	1142	665.9	190.39	1196.7	690.28	188.1	1115.7	1352.5	-28.313	1062.4	682.32	-188.88	1117.4	50.198	75.19	1051	480.71	-125.19	1034.7	834.8	228.66	1146.6	846.14	-262.37	1157.5	275.66	94.719	1109.2	204.62	96.611	1059.4	939.01	-314.26	919.92	973.57	-58.18	918.97	973.9	31.326	1130.3	293.91	148.56	1169.1	39.632	113.76	1087.1	338.83	-43.574	1205.8	348.2	98.48	1102.5	829.35	-318.95	1111.6	746.01	209.83	992.68	1043.5	-232.09	1022.9	67.623	24.056	990	1540.8	-78.465	908.28	1156.6	-22.41	1017	123.66	117.82	971.9	137.06	42.641	949.96	110.83	72.787	1078.9	56.171	141.35	945.27	32.15	-22.593	959.1	1058.4	162.75
